<svg width="177" height="227" viewBox="0 0 177 227" fill="none" xmlns="http://www.w3.org/2000/svg">
<g filter="url(#filter0_d_5_108)">
<rect x="55.0005" y="168" width="161" height="67" rx="15" transform="rotate(-90 55.0005 168)" fill="url(#paint0_linear_5_108)"/>
</g>
<g filter="url(#filter1_d_5_108)">
<path d="M132.05 62C133.339 41.2425 156.501 44.1377 156.501 44.1377C156.501 44.1377 146.061 47.9341 149.685 62H155C163.284 62 170 68.7158 170 77V105C170 113.284 163.284 120 155 120H90C81.7157 120 75 113.284 75 105V77C75 68.7158 81.7157 62 90 62H132.05Z" fill="url(#paint1_linear_5_108)" shape-rendering="crispEdges"/>
</g>
<g filter="url(#filter2_d_5_108)">
<path d="M44.9512 114C43.6644 134.721 20.5816 131.872 20.5 131.862C20.5317 131.851 30.9331 128.044 27.3154 114L22 114C13.7157 114 7 107.284 7 98.9999L7.00001 69.9999C7.00007 61.7157 13.7158 54.9999 22 54.9999L87 54.9999C95.2842 54.9999 102 61.7157 102 69.9999L102 98.9999C102 107.284 95.2843 114 87 114L44.9512 114Z" fill="url(#paint2_linear_5_108)" shape-rendering="crispEdges"/>
</g>
<path d="M7 219.2V196.8H12.76L19.288 210.272L25.752 196.8H31.48V219.2H26.68V204.896L21.176 216.064H17.336L11.8 204.896V219.2H7Z" fill="#6C50F3"/>
<path d="M43.6533 219.584C41.9893 219.584 40.5279 219.243 39.2692 218.56C38.0106 217.856 37.0186 216.885 36.2933 215.648C35.5893 214.389 35.2372 212.949 35.2372 211.328C35.2372 209.664 35.5893 208.181 36.2933 206.88C36.9973 205.579 37.9786 204.555 39.2373 203.808C40.4959 203.061 41.9573 202.688 43.6213 202.688C45.2426 202.688 46.6613 203.04 47.8773 203.744C49.0933 204.448 50.0426 205.408 50.7253 206.624C51.4293 207.819 51.7812 209.205 51.7812 210.784C51.7812 210.997 51.7706 211.243 51.7493 211.52C51.7493 211.776 51.7279 212.043 51.6852 212.32H38.6613V209.536H46.8853C46.8426 208.64 46.5119 207.925 45.8932 207.392C45.2959 206.837 44.5493 206.56 43.6533 206.56C42.9706 206.56 42.3519 206.72 41.7972 207.04C41.2426 207.36 40.7946 207.84 40.4533 208.48C40.1333 209.12 39.9733 209.931 39.9733 210.912V211.872C39.9733 212.619 40.1119 213.28 40.3893 213.856C40.6879 214.432 41.1039 214.88 41.6372 215.2C42.1919 215.52 42.8426 215.68 43.5892 215.68C44.2932 215.68 44.8692 215.541 45.3172 215.264C45.7866 214.965 46.1493 214.592 46.4053 214.144H51.3013C51.0026 215.168 50.4906 216.096 49.7653 216.928C49.0399 217.739 48.1546 218.389 47.1093 218.88C46.0639 219.349 44.9119 219.584 43.6533 219.584Z" fill="#6C50F3"/>
<path d="M62.479 219.584C61.0497 219.584 59.7483 219.221 58.575 218.496C57.423 217.771 56.5057 216.779 55.823 215.52C55.1617 214.24 54.831 212.789 54.831 211.168C54.831 209.525 55.1723 208.075 55.855 206.816C56.5377 205.536 57.4657 204.533 58.639 203.808C59.8337 203.061 61.1563 202.688 62.607 202.688C63.7163 202.688 64.687 202.891 65.519 203.296C66.351 203.68 67.0337 204.245 67.567 204.992V196.16H72.367V219.2H68.111L67.567 217.12C67.247 217.568 66.8523 217.984 66.383 218.368C65.935 218.731 65.391 219.019 64.751 219.232C64.111 219.467 63.3537 219.584 62.479 219.584ZM63.727 215.392C64.5163 215.392 65.2097 215.211 65.807 214.848C66.4257 214.485 66.895 213.984 67.215 213.344C67.5563 212.704 67.727 211.968 67.727 211.136C67.727 210.304 67.5563 209.568 67.215 208.928C66.895 208.288 66.4257 207.787 65.807 207.424C65.2097 207.061 64.5163 206.88 63.727 206.88C62.959 206.88 62.2657 207.061 61.647 207.424C61.0497 207.787 60.5803 208.288 60.239 208.928C59.8977 209.568 59.727 210.293 59.727 211.104C59.727 211.936 59.8977 212.683 60.239 213.344C60.5803 213.984 61.0497 214.485 61.647 214.848C62.2657 215.211 62.959 215.392 63.727 215.392Z" fill="#6C50F3"/>
<path d="M93.0795 219.584C91.4368 219.584 90.0075 219.285 88.7915 218.688C87.5755 218.091 86.6368 217.259 85.9755 216.192C85.3142 215.125 84.9835 213.888 84.9835 212.48H87.7995C87.7995 213.355 88.0022 214.165 88.4075 214.912C88.8128 215.637 89.3995 216.224 90.1675 216.672C90.9568 217.099 91.9275 217.312 93.0795 217.312C94.0822 217.312 94.9355 217.152 95.6395 216.832C96.3648 216.491 96.9088 216.032 97.2715 215.456C97.6555 214.88 97.8475 214.229 97.8475 213.504C97.8475 212.629 97.6555 211.925 97.2715 211.392C96.9088 210.837 96.4075 210.389 95.7675 210.048C95.1275 209.707 94.3808 209.408 93.5275 209.152C92.6955 208.875 91.8208 208.587 90.9035 208.288C89.1328 207.691 87.8315 206.944 86.9995 206.048C86.1675 205.152 85.7515 203.989 85.7515 202.56C85.7515 201.344 86.0288 200.277 86.5835 199.36C87.1595 198.443 87.9702 197.728 89.0155 197.216C90.0822 196.683 91.3408 196.416 92.7915 196.416C94.2208 196.416 95.4582 196.683 96.5035 197.216C97.5702 197.749 98.4022 198.485 98.9995 199.424C99.5968 200.341 99.8955 201.408 99.8955 202.624H97.0795C97.0795 202.005 96.9195 201.397 96.5995 200.8C96.2795 200.203 95.7888 199.712 95.1275 199.328C94.4875 198.923 93.6768 198.72 92.6955 198.72C91.8848 198.699 91.1595 198.837 90.5195 199.136C89.9008 199.413 89.4102 199.819 89.0475 200.352C88.7062 200.885 88.5355 201.536 88.5355 202.304C88.5355 203.029 88.6848 203.616 88.9835 204.064C89.3035 204.512 89.7515 204.896 90.3275 205.216C90.9248 205.515 91.6182 205.792 92.4075 206.048C93.1968 206.304 94.0715 206.592 95.0315 206.912C96.1195 207.275 97.0795 207.723 97.9115 208.256C98.7648 208.768 99.4262 209.429 99.8955 210.24C100.386 211.051 100.632 212.085 100.632 213.344C100.632 214.411 100.344 215.424 99.7675 216.384C99.2128 217.323 98.3808 218.091 97.2715 218.688C96.1622 219.285 94.7648 219.584 93.0795 219.584Z" fill="#6C50F3"/>
<path d="M104.346 226.24V203.072H106.778L107.002 205.696C107.343 205.184 107.781 204.704 108.314 204.256C108.847 203.787 109.487 203.413 110.234 203.136C110.981 202.837 111.834 202.688 112.794 202.688C114.373 202.688 115.738 203.061 116.89 203.808C118.063 204.555 118.97 205.568 119.61 206.848C120.271 208.107 120.602 209.547 120.602 211.168C120.602 212.789 120.271 214.24 119.61 215.52C118.97 216.779 118.063 217.771 116.89 218.496C115.717 219.221 114.341 219.584 112.762 219.584C111.461 219.584 110.309 219.317 109.306 218.784C108.325 218.251 107.567 217.504 107.034 216.544V226.24H104.346ZM112.474 217.248C113.519 217.248 114.447 216.992 115.258 216.48C116.069 215.968 116.698 215.264 117.146 214.368C117.615 213.451 117.85 212.373 117.85 211.136C117.85 209.92 117.615 208.853 117.146 207.936C116.698 207.019 116.069 206.304 115.258 205.792C114.447 205.28 113.519 205.024 112.474 205.024C111.407 205.024 110.469 205.28 109.658 205.792C108.847 206.304 108.218 207.019 107.77 207.936C107.322 208.853 107.098 209.92 107.098 211.136C107.098 212.373 107.322 213.451 107.77 214.368C108.218 215.264 108.847 215.968 109.658 216.48C110.469 216.992 111.407 217.248 112.474 217.248Z" fill="#6C50F3"/>
<path d="M124.377 219.2V196.16H127.065V219.2H124.377Z" fill="#6C50F3"/>
<path d="M136.75 219.584C135.449 219.584 134.361 219.36 133.486 218.912C132.612 218.443 131.961 217.835 131.534 217.088C131.108 216.32 130.894 215.488 130.894 214.592C130.894 213.504 131.172 212.587 131.726 211.84C132.302 211.072 133.102 210.496 134.126 210.112C135.172 209.707 136.398 209.504 137.806 209.504H142.062C142.062 208.501 141.902 207.669 141.582 207.008C141.284 206.325 140.836 205.813 140.238 205.472C139.662 205.131 138.937 204.96 138.062 204.96C137.038 204.96 136.153 205.216 135.406 205.728C134.66 206.24 134.201 206.997 134.03 208H131.278C131.406 206.848 131.79 205.888 132.43 205.12C133.092 204.331 133.924 203.733 134.926 203.328C135.929 202.901 136.974 202.688 138.062 202.688C139.556 202.688 140.793 202.965 141.774 203.52C142.777 204.053 143.524 204.811 144.014 205.792C144.505 206.752 144.75 207.893 144.75 209.216V219.2H142.35L142.19 216.352C141.977 216.8 141.7 217.227 141.358 217.632C141.038 218.016 140.654 218.357 140.206 218.656C139.758 218.933 139.246 219.157 138.67 219.328C138.116 219.499 137.476 219.584 136.75 219.584ZM137.166 217.312C137.913 217.312 138.585 217.163 139.182 216.864C139.801 216.544 140.324 216.117 140.75 215.584C141.177 215.029 141.497 214.421 141.71 213.76C141.945 213.099 142.062 212.405 142.062 211.68V211.584H138.03C136.985 211.584 136.142 211.712 135.502 211.968C134.862 212.203 134.404 212.544 134.126 212.992C133.849 213.419 133.71 213.909 133.71 214.464C133.71 215.04 133.838 215.541 134.094 215.968C134.372 216.395 134.766 216.725 135.278 216.96C135.812 217.195 136.441 217.312 137.166 217.312Z" fill="#6C50F3"/>
<path d="M149.165 219.2V203.072H151.852V219.2H149.165ZM150.508 199.648C149.975 199.648 149.527 199.477 149.165 199.136C148.823 198.773 148.652 198.325 148.652 197.792C148.652 197.259 148.823 196.832 149.165 196.512C149.527 196.171 149.975 196 150.508 196C151.02 196 151.458 196.171 151.82 196.512C152.183 196.832 152.365 197.259 152.365 197.792C152.365 198.325 152.183 198.773 151.82 199.136C151.458 199.477 151.02 199.648 150.508 199.648Z" fill="#6C50F3"/>
<path d="M156.596 219.2V203.072H159.028L159.156 205.888C159.668 204.885 160.393 204.107 161.332 203.552C162.292 202.976 163.38 202.688 164.596 202.688C165.855 202.688 166.943 202.944 167.86 203.456C168.777 203.947 169.492 204.704 170.004 205.728C170.516 206.731 170.772 208.011 170.772 209.568V219.2H168.084V209.856C168.084 208.235 167.721 207.019 166.996 206.208C166.292 205.397 165.289 204.992 163.988 204.992C163.092 204.992 162.292 205.216 161.588 205.664C160.884 206.091 160.319 206.72 159.892 207.552C159.487 208.363 159.284 209.376 159.284 210.592V219.2H156.596Z" fill="#6C50F3"/>
<path d="M75.9995 207C75.9995 205.343 77.3427 204 78.9995 204H80.9995V216C80.9995 217.657 79.6564 219 77.9995 219H75.9995V207Z" fill="url(#paint3_linear_5_108)"/>
<path d="M75.9995 207C75.9995 205.343 77.3427 204 78.9995 204H80.9995V216C80.9995 217.657 79.6564 219 77.9995 219H75.9995V207Z" fill="#6C50F3"/>
<circle cx="113.5" cy="91.5" r="3.5" fill="#15CD9E"/>
<circle cx="27.5" cy="85.5" r="3.5" fill="#15CD9E"/>
<circle cx="150.5" cy="91.5" r="3.5" fill="#15CD9E"/>
<circle cx="64.5" cy="85.5" r="3.5" fill="#15CD9E"/>
<circle cx="132.5" cy="91.5" r="3.5" fill="#15CD9E"/>
<circle cx="46.5" cy="85.5" r="3.5" fill="#15CD9E"/>
<path d="M75 77C75 68.7157 81.7157 62 90 62H102V99C102 107.284 95.2843 114 87 114H75V77Z" fill="url(#paint4_linear_5_108)"/>
<defs>
<filter id="filter0_d_5_108" x="48.4005" y="0.399996" width="80.2" height="174.2" filterUnits="userSpaceOnUse" color-interpolation-filters="sRGB">
<feFlood flood-opacity="0" result="BackgroundImageFix"/>
<feColorMatrix in="SourceAlpha" type="matrix" values="0 0 0 0 0 0 0 0 0 0 0 0 0 0 0 0 0 0 127 0" result="hardAlpha"/>
<feOffset/>
<feGaussianBlur stdDeviation="3.3"/>
<feComposite in2="hardAlpha" operator="out"/>
<feColorMatrix type="matrix" values="0 0 0 0 0 0 0 0 0 0 0 0 0 0 0 0 0 0 0.25 0"/>
<feBlend mode="normal" in2="BackgroundImageFix" result="effect1_dropShadow_5_108"/>
<feBlend mode="normal" in="SourceGraphic" in2="effect1_dropShadow_5_108" result="shape"/>
</filter>
<filter id="filter1_d_5_108" x="68.4" y="37.4" width="108.2" height="89.2" filterUnits="userSpaceOnUse" color-interpolation-filters="sRGB">
<feFlood flood-opacity="0" result="BackgroundImageFix"/>
<feColorMatrix in="SourceAlpha" type="matrix" values="0 0 0 0 0 0 0 0 0 0 0 0 0 0 0 0 0 0 127 0" result="hardAlpha"/>
<feOffset/>
<feGaussianBlur stdDeviation="3.3"/>
<feComposite in2="hardAlpha" operator="out"/>
<feColorMatrix type="matrix" values="0 0 0 0 0 0 0 0 0 0 0 0 0 0 0 0 0 0 0.25 0"/>
<feBlend mode="normal" in2="BackgroundImageFix" result="effect1_dropShadow_5_108"/>
<feBlend mode="normal" in="SourceGraphic" in2="effect1_dropShadow_5_108" result="shape"/>
</filter>
<filter id="filter2_d_5_108" x="0.4" y="48.3999" width="108.2" height="90.2" filterUnits="userSpaceOnUse" color-interpolation-filters="sRGB">
<feFlood flood-opacity="0" result="BackgroundImageFix"/>
<feColorMatrix in="SourceAlpha" type="matrix" values="0 0 0 0 0 0 0 0 0 0 0 0 0 0 0 0 0 0 127 0" result="hardAlpha"/>
<feOffset/>
<feGaussianBlur stdDeviation="3.3"/>
<feComposite in2="hardAlpha" operator="out"/>
<feColorMatrix type="matrix" values="0 0 0 0 0 0 0 0 0 0 0 0 0 0 0 0 0 0 0.25 0"/>
<feBlend mode="normal" in2="BackgroundImageFix" result="effect1_dropShadow_5_108"/>
<feBlend mode="normal" in="SourceGraphic" in2="effect1_dropShadow_5_108" result="shape"/>
</filter>
<linearGradient id="paint0_linear_5_108" x1="237" y1="153" x2="-76.9995" y2="303.5" gradientUnits="userSpaceOnUse">
<stop stop-color="#2CEABD"/>
<stop offset="1" stop-color="#8AFFE3"/>
</linearGradient>
<linearGradient id="paint1_linear_5_108" x1="163" y1="32" x2="88.5" y2="129" gradientUnits="userSpaceOnUse">
<stop stop-color="#00FFC3"/>
<stop offset="1" stop-color="#89FFE3" stop-opacity="0.4"/>
</linearGradient>
<linearGradient id="paint2_linear_5_108" x1="-59.5" y1="183.5" x2="57.177" y2="210.977" gradientUnits="userSpaceOnUse">
<stop stop-color="#00FFC3"/>
<stop offset="1" stop-color="#89FFE3" stop-opacity="0.4"/>
</linearGradient>
<linearGradient id="paint3_linear_5_108" x1="74.1245" y1="177.289" x2="91.634" y2="225.106" gradientUnits="userSpaceOnUse">
<stop stop-color="#6C50F3"/>
<stop offset="1" stop-color="#3FFED1"/>
</linearGradient>
<linearGradient id="paint4_linear_5_108" x1="64.875" y1="-30.5965" x2="106.753" y2="147.549" gradientUnits="userSpaceOnUse">
<stop stop-color="#6C50F3"/>
<stop offset="1" stop-color="#3FFED1"/>
</linearGradient>
</defs>
</svg>
